<?xml version="1.0" standalone="no"?><!DOCTYPE svg PUBLIC "-//W3C//DTD SVG 1.1//EN" "http://www.w3.org/Graphics/SVG/1.1/DTD/svg11.dtd"><svg t="1663741829777" class="icon" viewBox="0 0 1024 1024" version="1.1" xmlns="http://www.w3.org/2000/svg" p-id="5626" xmlns:xlink="http://www.w3.org/1999/xlink" width="64" height="64"><path d="M649.173333 15.658667a64 64 0 0 1 21.44 62.570666L600.810667 401.066667h199.253333a74.666667 74.666667 0 0 1 57.237333 122.645333L465.045333 991.850667a64 64 0 0 1-111.616-54.634667l69.802667-322.837333h-199.253333a74.666667 74.666667 0 0 1-57.216-122.602667L558.997333 23.616A64 64 0 0 1 649.173333 15.658667zM215.829333 532.885333a10.666667 10.666667 0 0 0 8.170667 17.493334h199.232a64 64 0 0 1 62.549333 77.525333L416 950.741333l392.234667-468.16a10.666667 10.666667 0 0 0-8.170667-17.514666h-199.253333a64 64 0 0 1-62.549334-77.546667l69.802667-322.816L215.829333 532.906667z" p-id="5627"></path></svg>